HIERARCHY
ROOT Hips
{
	OFFSET 0.000000 88.474243 0.000000
	CHANNELS 6 Xposition Yposition Zposition Zrotation Yrotation Xrotation 
	JOINT Hips_Spine
	{
		OFFSET 0.000000 0.000000 0.000000
		CHANNELS 3 Zrotation Yrotation Xrotation
		JOINT Spine
		{
			OFFSET 0.005100 8.711998 -0.691000
			CHANNELS 3 Zrotation Yrotation Xrotation
			JOINT Spine1
			{
				OFFSET -0.009200 8.660301 -1.275000
				CHANNELS 3 Zrotation Yrotation Xrotation
				JOINT Spine2
				{
					OFFSET 0.006300 9.852501 -1.857000
					CHANNELS 3 Zrotation Yrotation Xrotation
					JOINT Spine2_Neck
					{
						OFFSET 0.000000 0.000000 0.000000
						CHANNELS 3 Zrotation Yrotation Xrotation
						JOINT Neck
						{
							OFFSET 0.016300 11.420799 -0.263300
							CHANNELS 3 Zrotation Yrotation Xrotation
							End Site #name: Head
							{
								OFFSET -0.019200 9.262405 2.362500
							}
						}
					}
					JOINT Spine2_LeftShoulder
					{
						OFFSET 0.000000 0.000000 0.000000
						CHANNELS 3 Zrotation Yrotation Xrotation
						JOINT LeftShoulder
						{
							OFFSET 5.616900 6.732201 -0.345700
							CHANNELS 3 Zrotation Yrotation Xrotation
							JOINT LeftArm
							{
								OFFSET 10.664888 -0.183372 -2.440700
								CHANNELS 3 Zrotation Yrotation Xrotation
								JOINT LeftForeArm
								{
									OFFSET 27.459126 0.000000 0.000000
									CHANNELS 3 Zrotation Yrotation Xrotation
									End Site #name: LeftHand
									{
										OFFSET 21.306858 0.000000 0.000000
									}
								}
							}
						}
					}
					JOINT Spine2_RightShoulder
					{
						OFFSET 0.000000 0.000000 0.000000
						CHANNELS 3 Zrotation Yrotation Xrotation
						JOINT RightShoulder
						{
							OFFSET -5.580300 6.737503 -0.344400
							CHANNELS 3 Zrotation Yrotation Xrotation
							JOINT RightArm
							{
								OFFSET -10.679335 -0.188484 -2.383900
								CHANNELS 3 Zrotation Yrotation Xrotation
								JOINT RightForeArm
								{
									OFFSET -27.503529 0.000000 0.000000
									CHANNELS 3 Zrotation Yrotation Xrotation
									End Site #name: RightHand
									{
										OFFSET -21.306808 0.000000 0.000000
									}
								}
							}
						}
					}
				}
			}
		}
	}
	JOINT Hips_LeftUpLeg
	{
		OFFSET 0.000000 0.000000 0.000000
		CHANNELS 3 Zrotation Yrotation Xrotation
		JOINT LeftUpLeg
		{
			OFFSET 6.857700 -6.739601 0.312100
			CHANNELS 3 Zrotation Yrotation Xrotation
			JOINT LeftLeg
			{
				OFFSET -0.367590 -34.731552 -4.572400
				CHANNELS 3 Zrotation Yrotation Xrotation
				End Site #name: LeftFoot
				{
					OFFSET 0.367590 -34.656704 -6.067400
				}
			}
		}
	}
	JOINT Hips_RightUpLeg
	{
		OFFSET 0.000000 0.000000 0.000000
		CHANNELS 3 Zrotation Yrotation Xrotation
		JOINT RightUpLeg
		{
			OFFSET -6.876100 -6.733299 0.301000
			CHANNELS 3 Zrotation Yrotation Xrotation
			JOINT RightLeg
			{
				OFFSET 0.347353 -34.795158 -4.515900
				CHANNELS 3 Zrotation Yrotation Xrotation
				End Site #name: RightFoot
				{
					OFFSET -0.347353 -34.589367 -6.070300
				}
			}
		}
	}
}
MOTION
Frames: 16
Frame Time: 0.041667
2.831031 0.395137 -4.569232 175.784458 7.696434 -178.548730 0.000000 -0.000000 0.000000 -1.140705 -1.837030 4.709983 0.302298 -2.130429 2.292332 0.000000 0.000000 0.000000 1.060931 -2.163832 2.710723 0.877308 -28.657054 -1.208393 0.117632 -1.919659 0.214447 0.031193 -2.889637 -0.182181 -81.648151 -25.202820 16.159710 6.029094 -24.022686 2.243697 0.421390 -3.030939 0.964165 19.114014 18.278356 4.585648 53.667466 17.147882 4.323218 -12.133913 86.643057 -8.417913 0.000000 0.000000 0.000000 -2.961918 16.659242 -6.919559 0.443180 -34.618868 -13.690434 0.000000 0.000000 -0.000000 -5.961038 -53.045468 -9.254282 -17.184330 -11.097773 22.420491 
2.876893 0.433312 -4.692846 175.768361 7.876557 -178.554370 0.000000 -0.000000 0.000000 -1.457879 -1.885905 4.874321 0.244515 -2.086177 2.204379 0.000000 0.000000 0.000000 0.997672 -2.135059 2.608000 0.782531 -28.206695 -1.361570 0.070852 -1.887005 0.189631 0.014192 -3.206760 -0.077169 -81.283354 -25.510814 16.517907 5.926332 -24.794882 2.057111 0.364621 -2.985069 0.882510 18.778770 18.322762 4.516109 53.645066 17.219330 4.495604 -11.041181 85.977537 -7.298959 0.000000 0.000000 0.000000 -2.961196 16.393540 -7.185649 0.331068 -34.641730 -13.325888 0.000000 -0.000000 -0.000000 -5.823235 -52.362495 -9.233892 -16.539912 -10.383180 22.040014 
2.925507 0.473812 -4.811174 175.721958 8.007264 -178.547860 0.000000 -0.000000 0.000000 -1.685583 -1.897926 5.022453 0.193363 -2.026727 2.123032 0.000000 0.000000 0.000000 0.945459 -2.097858 2.519929 0.696855 -27.588779 -1.598257 0.035680 -1.842048 0.178737 0.003335 -3.521816 0.019088 -80.901231 -25.742798 16.600202 5.828502 -25.806487 1.825251 0.328745 -2.940441 0.814384 18.454979 18.369652 4.431658 53.632372 17.228932 4.620197 -10.381249 85.380964 -6.617421 0.000000 0.000000 0.000000 -2.949761 16.111563 -7.477198 0.191582 -34.603828 -12.895171 0.000000 -0.000000 -0.000000 -5.721083 -51.701931 -9.168927 -15.926959 -9.701338 21.606636 
2.978160 0.516757 -4.923454 175.644013 8.090237 -178.531606 0.000000 -0.000000 0.000000 -1.849325 -1.862608 5.184362 0.142025 -1.954904 2.050285 0.000000 0.000000 0.000000 0.892900 -2.055255 2.440088 0.609829 -26.850481 -1.953830 0.002979 -1.786655 0.178823 -0.021002 -3.807798 0.102087 -80.540450 -25.936305 16.557465 5.756824 -27.047386 1.599162 0.295867 -2.886140 0.762358 18.169798 18.427094 4.349936 53.579391 17.249596 4.662880 -10.099089 84.970634 -6.318183 0.000000 0.000000 -0.000000 -2.938456 15.804995 -7.825309 0.012429 -34.499244 -12.380456 0.000000 -0.000000 -0.000000 -5.648553 -51.111487 -9.100769 -15.381163 -9.080620 21.174473 
3.035146 0.561670 -5.031232 175.516451 8.081326 -178.511291 0.000000 -0.000000 0.000000 -1.997551 -1.790141 5.335650 0.085969 -1.880151 1.992131 0.000000 0.000000 0.000000 0.831871 -2.010773 2.375758 0.500766 -26.035593 -2.380150 -0.032360 -1.727052 0.189745 -0.059749 -4.092982 0.174819 -80.147725 -26.118629 16.432018 5.705038 -28.507117 1.349716 0.259452 -2.828023 0.720222 17.912571 18.478736 4.300699 53.546381 17.238465 4.676124 -10.230486 84.808843 -6.433860 0.000000 0.000000 -0.000000 -2.939622 15.484243 -8.255749 -0.208481 -34.311961 -11.749563 0.000000 -0.000000 -0.000000 -5.608277 -50.682434 -9.045895 -14.922430 -8.484557 20.808453 
3.096490 0.607107 -5.136623 175.323725 7.968498 -178.483562 0.000000 -0.000000 0.000000 -2.147394 -1.703307 5.509027 0.026543 -1.809209 1.947141 0.000000 0.000000 0.000000 0.764772 -1.964821 2.321641 0.384353 -25.167688 -2.838403 -0.071593 -1.669406 0.209125 -0.114479 -4.362566 0.233833 -79.683626 -26.305163 16.228499 5.713205 -30.128041 1.107281 0.217018 -2.772439 0.689216 17.686631 18.528031 4.288200 53.522029 17.207575 4.619709 -10.834596 84.889827 -7.012576 0.000000 0.000000 -0.000000 -2.949252 15.150571 -8.760579 -0.460587 -34.049829 -11.011166 0.000000 -0.000000 -0.000000 -5.596250 -50.440289 -8.991439 -14.485141 -7.834703 20.501415 
3.162790 0.652015 -5.240380 175.086798 7.832950 -178.444694 0.000000 -0.000000 0.000000 -2.332239 -1.626277 5.709935 -0.035225 -1.754178 1.917066 0.000000 0.000000 0.000000 0.695917 -1.926980 2.289473 0.317566 -24.296804 -3.335530 -0.113591 -1.618746 0.239125 -0.191466 -4.636926 0.316331 -79.167571 -26.490459 15.965490 5.775097 -31.843575 0.879835 0.170060 -2.724974 0.670915 17.487405 18.622409 4.262505 53.511376 17.170743 4.534904 -12.104459 85.234683 -8.238891 0.000000 0.000000 -0.000000 -2.971475 14.843863 -9.347604 -0.740058 -33.744037 -10.165464 0.000000 -0.000000 -0.000000 -5.617843 -50.457062 -8.921993 -14.108414 -7.119239 20.227377 
3.235291 0.694716 -5.343251 174.820331 7.730711 -178.387690 -0.000000 -0.000000 0.000000 -2.572526 -1.594873 5.955447 -0.098196 -1.725349 1.912998 0.000000 0.000000 0.000000 0.627382 -1.901480 2.274958 0.283915 -23.387627 -3.940926 -0.159169 -1.578686 0.280086 -0.285450 -4.904341 0.463729 -78.597948 -26.695369 15.614406 5.936068 -34.793458 0.617388 0.115127 -2.692387 0.662676 17.319662 18.765728 4.208569 53.518714 17.126398 4.456761 -14.675248 85.882840 -10.743388 0.000000 0.000000 -0.000000 -3.012931 14.575264 -9.994653 -1.041700 -33.400952 -9.205799 0.000000 -0.000000 -0.000000 -5.653719 -50.692683 -8.853036 -13.760400 -6.282288 19.998988 
3.313968 0.734206 -5.445277 174.517404 7.398421 -178.320285 -0.000000 -0.000000 0.000000 -2.878595 -1.645026 6.241543 -0.168096 -1.718807 1.930186 0.000000 0.000000 0.000000 0.554768 -1.887048 2.281991 0.176886 -22.416688 -4.589613 -0.209468 -1.551484 0.326042 -0.389396 -5.164029 0.611400 -78.013176 -26.899571 15.244216 6.166834 -37.973583 0.356033 0.053047 -2.674898 0.664321 17.184306 18.923662 4.158979 53.562993 17.059815 4.414652 -20.237128 86.862699 -16.220823 0.000000 0.000000 -0.000000 -3.088646 14.330235 -10.715329 -1.366884 -33.046751 -8.149336 0.000000 -0.000000 -0.000000 -5.697344 -51.115077 -8.788516 -13.513848 -5.381811 19.810375 
3.399366 0.771449 -5.548154 174.160202 6.849738 -178.263031 -0.000000 -0.000000 0.000000 -3.263479 -1.761244 6.574113 -0.243405 -1.725992 1.951370 0.000000 0.000000 0.000000 0.487178 -1.883269 2.288356 -0.034938 -21.382810 -5.266049 -0.261481 -1.535592 0.367352 -0.443694 -5.371199 0.689200 -77.390408 -27.088787 14.785131 6.441142 -40.869555 0.128450 -0.015267 -2.666512 0.663870 17.073073 19.088329 4.109143 53.647103 16.953862 4.433422 -36.890548 88.118019 -32.785875 0.000000 0.000000 -0.000000 -3.217141 14.087198 -11.488748 -1.714630 -32.709600 -7.010352 0.000000 -0.000000 -0.000000 -5.785968 -51.789405 -8.678223 -13.387805 -4.484747 19.577860 
3.491284 0.809658 -5.653527 173.787245 5.935784 -178.194797 -0.000000 -0.000000 0.000000 -3.728732 -1.906926 6.943326 -0.322442 -1.739078 1.967830 0.000000 0.000000 0.000000 0.421931 -1.878673 2.292244 -0.298388 -20.334676 -5.895702 -0.315223 -1.522954 0.399121 -0.458378 -5.512304 0.697407 -76.769204 -27.244354 14.299080 6.746616 -43.359503 -0.049671 -0.088172 -2.658807 0.656309 16.976025 19.253791 4.081247 53.768952 16.827771 4.528738 -102.285598 88.801342 -98.105879 0.000000 0.000000 -0.000000 -3.387394 13.852885 -12.286223 -2.081854 -32.440782 -5.826033 0.000000 -0.000000 -0.000000 -5.911638 -52.669733 -8.530848 -13.279437 -3.519859 19.291286 
3.591316 0.850479 -5.761124 173.416056 4.854824 -178.126943 -0.000000 -0.000000 0.000000 -4.268961 -2.069463 7.364935 -0.402899 -1.750969 1.966737 0.000000 0.000000 0.000000 0.354861 -1.867221 2.284656 -0.608772 -19.244856 -6.479487 -0.368722 -1.507097 0.421430 -0.466111 -5.684874 0.712813 -76.279565 -27.479059 14.095405 7.109837 -45.471061 -0.195189 -0.165224 -2.643605 0.631964 16.880120 19.384763 4.080390 53.912924 16.660881 4.671243 -153.283955 87.335333 -149.056054 0.000000 0.000000 -0.000000 -3.591618 13.684998 -13.059428 -2.463759 -32.273591 -4.631411 0.000000 -0.000000 -0.000000 -6.009365 -53.544902 -8.377629 -13.151807 -2.451851 18.882228 
3.702250 0.894540 -5.870568 173.061864 3.876061 -178.071447 -0.000000 -0.000000 0.000000 -4.853452 -2.238494 7.764260 -0.486277 -1.758480 1.952427 0.000000 0.000000 0.000000 0.285404 -1.847079 2.255031 -0.774790 -17.974692 -6.913770 -0.425424 -1.485113 0.432099 -0.467856 -5.853854 0.723870 -75.824000 -27.656971 13.902364 7.480448 -47.322162 -0.360251 -0.246601 -2.619569 0.591325 16.778340 19.497485 4.118223 54.063932 16.490447 4.790484 -165.922898 85.017398 -161.664673 0.000000 0.000000 -0.000000 -3.803561 13.652914 -13.720022 -2.821528 -32.153561 -3.525343 0.000000 -0.000000 -0.000000 -6.107114 -54.195324 -8.246731 -12.542156 -1.170927 18.334410 
3.824413 0.943437 -5.983251 172.771719 3.021031 -178.025707 -0.000000 -0.000000 0.000000 -5.374037 -2.361058 8.089654 -0.579473 -1.765546 1.921136 0.000000 0.000000 0.000000 0.208518 -1.824159 2.208967 -0.944619 -16.536164 -7.417911 -0.482613 -1.457314 0.435629 -0.456009 -6.002855 0.732842 -75.426484 -27.752665 13.729861 7.834591 -48.967982 -0.562714 -0.334560 -2.591657 0.537519 16.674271 19.646818 4.188077 54.250666 16.323666 4.924408 -170.672485 82.457868 -166.398663 0.000000 0.000000 -0.000000 -4.052375 13.733906 -14.278092 -3.143594 -32.035792 -2.499079 0.000000 -0.000000 -0.000000 -6.171894 -54.449437 -8.236102 -11.627870 0.074864 17.817403 
3.956489 0.999060 -6.099472 172.528047 2.264921 -178.006083 -0.000000 -0.000000 0.000000 -5.852948 -2.481912 8.339173 -0.673125 -1.778955 1.874187 0.000000 0.000000 0.000000 0.119745 -1.803748 2.161922 -0.953693 -15.108216 -7.998987 -0.542550 -1.432813 0.436489 -0.435988 -6.122538 0.737956 -75.030665 -27.817725 13.581859 8.136616 -50.471170 -0.805488 -0.431658 -2.570661 0.478327 16.592624 19.788430 4.260143 54.470355 16.228273 5.012264 -173.100458 79.821576 -168.824400 0.000000 0.000000 -0.000000 -4.300734 13.910391 -14.669011 -3.402109 -31.943412 -1.670585 0.000000 -0.000000 -0.000000 -6.117317 -54.070348 -8.347737 -10.643100 1.055720 17.290104 
4.096067 1.064593 -6.223042 172.337350 1.592396 -178.015408 -0.000000 -0.000000 0.000000 -6.303145 -2.630964 8.555571 -0.766089 -1.808514 1.831191 0.000000 0.000000 0.000000 0.022581 -1.790146 2.125632 -0.862569 -13.694200 -8.565219 -0.602764 -1.418072 0.438984 -0.409053 -6.203412 0.738922 -74.602408 -27.887271 13.423844 8.452095 -52.192889 -1.125502 -0.534695 -2.563037 0.423315 16.548579 19.914082 4.286884 54.697828 16.168378 5.023159 -174.547767 77.235895 -170.296849 0.000000 0.000000 -0.000000 -4.518768 14.158841 -14.877381 -3.613212 -31.936274 -1.110217 0.000000 -0.000000 -0.000000 -6.059020 -53.324031 -8.461625 -9.624845 1.788726 16.667594 
